<svg width="25" height="25" viewBox="0 0 25 25" fill="none" xmlns="http://www.w3.org/2000/svg">
<path d="M12.0976 2.1798C15.3278 2.1798 15.7104 2.19209 16.9861 2.25029C18.1656 2.30413 18.8061 2.50121 19.2325 2.66683C19.7971 2.88629 20.2002 3.14849 20.6235 3.5718C21.0468 3.99511 21.309 4.39816 21.5284 4.9628C21.6941 5.38913 21.8911 6.02969 21.945 7.20915C22.0032 8.48485 22.0155 8.86743 22.0155 12.0977C22.0155 15.3279 22.0032 15.7105 21.945 16.9861C21.8911 18.1656 21.6941 18.8062 21.5284 19.2325C21.309 19.7972 21.0468 20.2002 20.6235 20.6235C20.2002 21.0468 19.7971 21.309 19.2325 21.5284C18.8061 21.6941 18.1656 21.8912 16.9861 21.945C15.7106 22.0032 15.328 22.0155 12.0976 22.0155C8.86719 22.0155 8.48461 22.0032 7.20915 21.945C6.02964 21.8912 5.38908 21.6941 4.9628 21.5284C4.39811 21.309 3.99506 21.0468 3.57175 20.6235C3.14844 20.2002 2.88624 19.7972 2.66683 19.2325C2.50116 18.8062 2.30408 18.1656 2.25025 16.9862C2.19204 15.7105 2.17975 15.3279 2.17975 12.0977C2.17975 8.86743 2.19204 8.48485 2.25025 7.2092C2.30408 6.02969 2.50116 5.38913 2.66683 4.9628C2.88624 4.39816 3.14844 3.99511 3.57175 3.5718C3.99506 3.14849 4.39811 2.88629 4.9628 2.66683C5.38908 2.50121 6.02964 2.30413 7.2091 2.25029C8.4848 2.19209 8.86739 2.1798 12.0976 2.1798ZM12.0976 0C8.81207 0 8.40014 0.0139263 7.10979 0.0728008C5.82209 0.131579 4.94272 0.336055 4.17318 0.635134C3.37765 0.944297 2.70299 1.35796 2.03045 2.0305C1.35791 2.70304 0.944249 3.3777 0.635086 4.17322C0.336007 4.94277 0.131531 5.82214 0.0727528 7.10984C0.0138783 8.40014 0 8.81211 0 12.0977C0 15.3832 0.0138783 15.7952 0.0727528 17.0855C0.131531 18.3732 0.336007 19.2525 0.635086 20.0221C0.944249 20.8176 1.35791 21.4923 2.03045 22.1648C2.70299 22.8374 3.37765 23.251 4.17318 23.5602C4.94272 23.8593 5.82209 24.0637 7.10979 24.1225C8.40014 24.1814 8.81207 24.1953 12.0976 24.1953C15.3832 24.1953 15.7951 24.1814 17.0854 24.1225C18.3731 24.0637 19.2525 23.8593 20.022 23.5602C20.8176 23.251 21.4922 22.8374 22.1648 22.1648C22.8373 21.4923 23.251 20.8176 23.5601 20.0221C23.8592 19.2525 24.0637 18.3732 24.1225 17.0855C24.1813 15.7952 24.1953 15.3832 24.1953 12.0977C24.1953 8.81211 24.1813 8.40014 24.1225 7.10984C24.0637 5.82214 23.8592 4.94277 23.5601 4.17322C23.251 3.3777 22.8373 2.70304 22.1648 2.0305C21.4922 1.35796 20.8176 0.944297 20.022 0.635134C19.2525 0.336055 18.3731 0.131579 17.0854 0.0728008C15.7951 0.0139263 15.3832 0 12.0976 0ZM12.0976 5.88534C8.66666 5.88534 5.88529 8.6667 5.88529 12.0977C5.88529 15.5286 8.66666 18.31 12.0976 18.31C15.5286 18.31 18.3099 15.5286 18.3099 12.0977C18.3099 8.6667 15.5286 5.88534 12.0976 5.88534ZM12.0976 16.1302C9.87051 16.1302 8.06504 14.3248 8.06504 12.0977C8.06504 9.87056 9.87051 8.06509 12.0976 8.06509C14.3247 8.06509 16.1302 9.87056 16.1302 12.0977C16.1302 14.3248 14.3247 16.1302 12.0976 16.1302ZM20.0071 5.6399C20.0071 6.44167 19.3571 7.09164 18.5554 7.09164C17.7536 7.09164 17.1036 6.44167 17.1036 5.6399C17.1036 4.83813 17.7536 4.18821 18.5554 4.18821C19.3571 4.18821 20.0071 4.83813 20.0071 5.6399Z" fill="#fff"/>
</svg>
